<svg width="27" height="24" viewBox="0 0 27 24" fill="none" xmlns="http://www.w3.org/2000/svg">
<g clip-path="url(#clip0_270_1115)">
<path d="M24.2845 8.32993L22.0131 9.6614L19.271 8.05284L21.5424 6.71892L24.2845 8.32993ZM11.7327 10.3537L8.98982 11.9614L7.68154 11.1948L7.6743 11.1899L6.87935 10.724L9.62144 9.11541L11.7327 10.3537ZM11.4318 8.05366L13.5431 6.81537L15.6543 8.05366L13.5431 9.29195L11.4318 8.05366ZM13.5431 11.4154L16.2851 13.024L13.5423 14.6326L10.8002 13.024L13.5431 11.4154ZM15.3534 10.3529L17.4639 9.11459L20.206 10.724L18.0955 11.9614L15.3534 10.3529ZM19.7353 5.65963L17.4639 6.9911L15.3526 5.75281L17.624 4.42133L19.7353 5.65963ZM13.4642 1.98153L15.8136 3.36041L13.5398 4.69188L11.1896 3.31382L13.4642 1.98153ZM9.38247 4.37556L11.7327 5.75362L9.62144 6.99192L7.26798 5.61386L9.38247 4.37556ZM5.06578 9.6614L2.71554 8.28252L5.45763 6.67478L7.80787 8.05284L5.06578 9.6614ZM21.6076 19.4108L26.547 16.5133C26.6847 16.4327 26.7991 16.3167 26.8786 16.177C26.9582 16.0372 27 15.8786 27 15.7172C27 15.5558 26.9582 15.3972 26.8786 15.2574C26.7991 15.1177 26.6847 15.0016 26.547 14.9211L21.6076 12.0236L26.5478 9.12685C26.6853 9.046 26.7995 8.92985 26.8788 8.79005C26.9582 8.65025 26.9999 8.49171 26.9999 8.33033C26.9999 8.16896 26.9582 8.01042 26.8788 7.87062C26.7995 7.73082 26.6853 7.61467 26.5478 7.53382L13.9156 0.123681C13.778 0.0429757 13.6219 0.000488281 13.463 0.000488281C13.3041 0.000488281 13.148 0.0429757 13.0104 0.123681L0.458638 7.48723C0.320951 7.56791 0.206603 7.684 0.1271 7.82383C0.047597 7.96365 0.00574084 8.12227 0.00574084 8.28375C0.00574084 8.44522 0.047597 8.60384 0.1271 8.74366C0.206603 8.88349 0.320951 8.99958 0.458638 9.08026L5.39808 11.977L0.453006 14.8745C0.315302 14.9551 0.200927 15.0711 0.1214 15.2108C0.0418724 15.3506 0 15.5092 0 15.6706C0 15.832 0.0418724 15.9906 0.1214 16.1304C0.200927 16.2701 0.315302 16.3861 0.453006 16.4667L5.39245 19.3642L7.20281 20.4268L13.0869 23.8777C13.2245 23.9584 13.3805 24.0008 13.5394 24.0008C13.6983 24.0008 13.8544 23.9584 13.992 23.8777L19.7972 20.4734L21.6076 19.4108ZM13.539 22.019L7.67752 18.5804H7.67269L2.71554 15.673L7.20281 13.0412L13.0869 16.4929C13.2245 16.5736 13.3805 16.616 13.5394 16.616C13.6983 16.616 13.8544 16.5736 13.992 16.4929L19.7972 13.0878L24.2845 15.7196L13.539 22.019Z" fill="white"/>
</g>
<defs>
<clipPath id="clip0_270_1115">
<rect width="27" height="24" fill="white"/>
</clipPath>
</defs>
</svg>
