<svg width="41" height="40" viewBox="0 0 41 40" fill="none" xmlns="http://www.w3.org/2000/svg">
<path d="M22.0869 12.0128L31.9916 8.11295L28.0918 18.0177L40.1908 19.4744C40.0371 14.1763 38.017 9.63211 34.1305 5.8419C30.244 2.05169 25.745 0.105368 20.6333 0.00292969L22.0869 12.0128Z" fill="white"/>
<path d="M12.1176 18.0178L8.22086 8.11309L18.1133 12.0191L19.5669 0C14.2524 0.118828 9.67855 2.06515 5.84532 5.83897C2.01209 9.61279 0.0657617 14.1569 0.00634766 19.4714L12.1176 18.0178Z" fill="white"/>
<path d="M18.1131 27.9841L8.20836 31.8839L12.1082 21.9791L0 20.5225C0.00376366 23.0715 0.522967 25.5935 1.52639 27.9368C2.52982 30.28 3.99674 32.3962 5.83897 34.158C9.66811 37.938 14.242 39.8843 19.5606 39.997L18.1131 27.9841Z" fill="white"/>
<path d="M28.0857 21.9791L31.9916 31.8838L22.0869 27.9871L20.6333 40C23.9427 39.9391 27.1789 39.0154 30.0218 37.3202C33.0187 35.5351 35.5305 33.0402 37.3358 30.0553C39.0892 27.1775 40.0714 23.8964 40.1877 20.5286L28.0857 21.9791Z" fill="white"/>
</svg>
