<svg width="178" height="20" viewBox="0 0 178 20" fill="none" xmlns="http://www.w3.org/2000/svg">
<g clip-path="url(#clip0_207_430)">
<path d="M11.0388 6.00638L15.9912 4.05647L14.0413 9.00884L20.0907 9.73717C20.0139 7.08813 19.0039 4.81605 17.0606 2.92095C15.1174 1.02585 12.8678 0.0526839 10.312 0.00146484L11.0388 6.00638Z" fill="black"/>
<path d="M6.05416 9.00891L4.10579 4.05654L9.05201 6.00953L9.7788 0C7.12156 0.0594141 4.83463 1.03258 2.91802 2.91948C1.0014 4.80639 0.0282422 7.07847 -0.00146484 9.73571L6.05416 9.00891Z" fill="black"/>
<path d="M9.05215 13.992L4.09978 15.9419L6.04969 10.9896L-0.00439453 10.2612C-0.0025127 11.5358 0.257089 12.7968 0.758802 13.9684C1.26051 15.14 1.99398 16.1981 2.91509 17.079C4.82966 18.969 7.11659 19.9421 9.77588 19.9985L9.05215 13.992Z" fill="black"/>
<path d="M14.0382 10.9897L15.9912 15.942L11.0388 13.9937L10.312 20.0001C11.9667 19.9697 13.5848 19.5078 15.0062 18.6602C16.5047 17.7677 17.7606 16.5202 18.6633 15.0278C19.54 13.5889 20.0311 11.9483 20.0892 10.2644L14.0382 10.9897Z" fill="black"/>
<path d="M26.9009 12.0097H29.702C29.7668 12.4165 29.9576 12.7928 30.2475 13.0853C30.5848 13.4188 30.9983 13.6651 31.4522 13.8029C32.0184 13.9798 32.6093 14.0648 33.2024 14.0549C34.1683 14.0549 34.931 13.9166 35.4903 13.64C36.0496 13.3634 36.3293 12.9752 36.3293 12.4753C36.3355 12.2959 36.2945 12.118 36.2103 11.9595C36.1262 11.8009 36.0019 11.6672 35.8499 11.5718C35.5292 11.3598 34.9346 11.2061 34.0659 11.1108L31.6074 10.8343C30.0217 10.6611 28.8738 10.2893 28.1639 9.7187C27.454 9.14812 27.0986 8.3532 27.0976 7.33394C27.0778 6.5868 27.3288 5.85769 27.8044 5.28108C28.3396 4.67551 29.0304 4.22806 29.8019 3.98729C30.779 3.67087 31.8021 3.51975 32.829 3.54015C33.8551 3.52216 34.876 3.69032 35.8422 4.03646C36.6457 4.31714 37.3673 4.79222 37.9427 5.41937C38.4561 5.99221 38.7553 6.72522 38.7893 7.49374H35.9866C35.9332 7.13786 35.7649 6.80922 35.5072 6.55797C35.1951 6.26787 34.8177 6.05707 34.407 5.94335C33.8731 5.78824 33.3188 5.71468 32.7629 5.72516C31.884 5.72516 31.1838 5.85525 30.6624 6.11545C30.141 6.37564 29.8808 6.74493 29.8818 7.22331C29.876 7.3938 29.9156 7.56277 29.9966 7.7129C30.0776 7.86302 30.1971 7.98891 30.3428 8.07764C30.6501 8.2774 31.1956 8.42645 31.9792 8.52479L34.5361 8.8321C35.6629 8.95093 36.5613 9.14351 37.2312 9.40985C37.9012 9.67619 38.3785 10.0316 38.6633 10.4762C38.968 10.9859 39.118 11.5731 39.0951 12.1665C39.1078 12.9449 38.8455 13.7028 38.3545 14.3069C37.8031 14.9597 37.086 15.4517 36.2786 15.7313C35.2758 16.0869 34.2169 16.2581 33.1532 16.2368C32.0622 16.2593 30.9764 16.0817 29.9494 15.7129C29.1067 15.4152 28.3552 14.905 27.7675 14.2316C27.2392 13.6082 26.9342 12.8262 26.9009 12.0097Z" fill="black"/>
<path d="M39.957 3.7876H52.4278V6.22921H39.957V3.7876ZM44.8249 5.02454H47.5753V15.9987H44.8249V5.02454Z" fill="black"/>
<path d="M60.4349 3.7876L66.1495 15.9987H63.2023L58.2023 4.91083H59.115L54.1166 15.9987H51.1694L56.8839 3.7876H60.4349ZM54.3609 13.4265V11.18H62.832V13.4265H54.3609Z" fill="black"/>
<path d="M69.8246 9.20556H74.5296C75.1442 9.20556 75.6354 9.06214 76.0031 8.77532C76.1826 8.63316 76.3257 8.45032 76.4206 8.24191C76.5154 8.03351 76.5593 7.80552 76.5486 7.57679C76.5599 7.34954 76.5162 7.12293 76.4212 6.91616C76.3263 6.70939 76.1828 6.52857 76.0031 6.38902C75.6385 6.1063 75.1473 5.96493 74.5296 5.96493H69.4174L70.6712 4.54975V15.9957H67.9023V3.78761H74.8553C75.6624 3.77038 76.4631 3.9342 77.1986 4.26702C77.8369 4.5564 78.3833 5.01567 78.7782 5.59462C79.1506 6.18728 79.3481 6.87301 79.3481 7.57295C79.3481 8.27289 79.1506 8.95862 78.7782 9.55128C78.3828 10.1294 77.8365 10.588 77.1986 10.8773C76.4634 11.211 75.6625 11.3749 74.8553 11.3568H69.8246V9.20556ZM71.9405 10.2812H75.0996L79.7094 15.9957H76.4672L71.9405 10.2812Z" fill="black"/>
<path d="M90.1196 9.97383L90.3793 9.42067C91.3238 9.44218 92.1059 9.59123 92.7257 9.86781C93.2743 10.0813 93.743 10.4602 94.0667 10.9519C94.3905 11.4436 94.5533 12.0238 94.5327 12.6121C94.5445 13.2246 94.3848 13.8281 94.0717 14.3546C93.7457 14.8797 93.2736 15.2983 92.7134 15.5593C92.1151 15.8522 91.3663 15.9987 90.4669 15.9987H81.8975V3.7876H90.1519C91.2787 3.7876 92.1556 4.05087 92.7825 4.5774C93.4094 5.10393 93.7209 5.82714 93.7168 6.74703C93.7158 7.25089 93.5958 7.74739 93.3664 8.19602C93.1068 8.69055 92.7112 9.10054 92.2263 9.37764C91.7008 9.6993 90.9986 9.89803 90.1196 9.97383ZM84.6326 15.298L83.5754 13.9689H89.8907C90.4777 13.9689 90.931 13.8306 91.2506 13.554C91.4131 13.4085 91.5407 13.2282 91.624 13.0266C91.7072 12.8249 91.744 12.6071 91.7315 12.3893C91.7408 12.158 91.6956 11.9278 91.5995 11.7172C91.5034 11.5066 91.3591 11.3215 91.1783 11.177C90.8096 10.8789 90.2666 10.7293 89.5496 10.7283H84.4036V8.74458H89.2238C89.6653 8.7609 90.0972 8.6131 90.4362 8.3297C90.5988 8.18416 90.7266 8.00392 90.8101 7.80231C90.8936 7.60069 90.9307 7.38287 90.9187 7.16498C90.9224 6.98622 90.8879 6.80873 90.8174 6.64442C90.7469 6.48011 90.642 6.33278 90.5099 6.21231C90.2395 5.95723 89.8492 5.8297 89.3391 5.8297H83.5754L84.6341 4.49442L84.6326 15.298Z" fill="black"/>
<path d="M98.729 9.20556H103.434C104.049 9.20556 104.54 9.06214 104.908 8.77532C105.087 8.63316 105.23 8.45032 105.325 8.24191C105.42 8.03351 105.464 7.80552 105.453 7.57679C105.464 7.34954 105.421 7.12293 105.326 6.91616C105.231 6.70939 105.087 6.52857 104.908 6.38902C104.544 6.1063 104.053 5.96493 103.434 5.96493H98.3264L99.5803 4.54975V15.9957H96.8145V3.78761H103.767C104.575 3.77038 105.375 3.9342 106.111 4.26702C106.749 4.5564 107.295 5.01567 107.69 5.59462C108.063 6.18728 108.26 6.87301 108.26 7.57295C108.26 8.27289 108.063 8.95862 107.69 9.55128C107.295 10.1294 106.749 10.588 106.111 10.8773C105.373 11.2121 104.57 11.376 103.76 11.3568H98.729V9.20556ZM100.845 10.2812H104.012L108.621 15.9957H105.372L100.845 10.2812Z" fill="black"/>
<path d="M113.33 10.6407C113.313 11.2225 113.442 11.7992 113.705 12.3186C113.952 12.7834 114.335 13.1614 114.804 13.4019C115.354 13.6541 115.953 13.7846 116.558 13.7846C117.164 13.7846 117.762 13.6541 118.313 13.4019C118.777 13.1589 119.157 12.7813 119.402 12.3186C119.665 11.7992 119.794 11.2225 119.777 10.6407V3.7876H122.543V10.7713C122.566 11.7808 122.306 12.7765 121.793 13.6462C121.289 14.47 120.56 15.1334 119.693 15.5593C118.708 16.0098 117.638 16.243 116.554 16.243C115.471 16.243 114.401 16.0098 113.416 15.5593C112.551 15.1304 111.823 14.4676 111.316 13.6462C110.798 12.778 110.536 11.7816 110.56 10.7713V3.7876H113.325L113.33 10.6407Z" fill="black"/>
<path d="M124.674 12.0099H127.475C127.54 12.4169 127.73 12.7933 128.021 13.0855C128.358 13.419 128.772 13.6653 129.226 13.8031C129.792 13.98 130.383 14.0651 130.976 14.0551C131.941 14.0551 132.703 13.9168 133.262 13.6402C133.822 13.3636 134.101 12.9754 134.101 12.4755C134.108 12.296 134.067 12.118 133.983 11.9594C133.898 11.8008 133.774 11.6672 133.622 11.572C133.301 11.3599 132.706 11.2063 131.838 11.111L129.379 10.8344C127.792 10.6613 126.643 10.2894 125.934 9.71886C125.225 9.14828 124.87 8.35336 124.868 7.3341C124.849 6.58678 125.1 5.8577 125.576 5.28124C126.112 4.67578 126.802 4.22836 127.574 3.98745C128.549 3.6728 129.57 3.52272 130.595 3.54338C131.621 3.52566 132.642 3.69381 133.608 4.03969C134.411 4.32036 135.132 4.79547 135.707 5.42261C136.22 5.99563 136.52 6.72843 136.555 7.49698H133.76C133.705 7.14118 133.537 6.81277 133.279 6.56121C132.967 6.27142 132.591 6.06064 132.18 5.94658C131.646 5.79148 131.091 5.71792 130.535 5.72838C129.657 5.72838 128.957 5.85848 128.436 6.11867C127.914 6.37887 127.654 6.74815 127.654 7.22654C127.648 7.39703 127.688 7.566 127.769 7.71612C127.85 7.86625 127.969 7.99213 128.115 8.08087C128.422 8.28063 128.969 8.42967 129.751 8.52801L132.306 8.83533C133.433 8.95416 134.332 9.14674 135.002 9.41308C135.672 9.67942 136.149 10.0349 136.434 10.4795C136.738 10.9891 136.888 11.5763 136.865 12.1697C136.879 12.9489 136.618 13.7081 136.126 14.3132C135.576 14.9667 134.858 15.4589 134.05 15.7376C133.048 16.0933 131.989 16.2646 130.925 16.2431C129.832 16.2642 128.745 16.0846 127.717 15.713C126.874 15.4154 126.123 14.9051 125.536 14.2318C125.008 13.6085 124.705 12.8261 124.674 12.0099Z" fill="black"/>
<path d="M139.161 3.7876H141.927V15.9987H139.161V3.7876ZM140.676 8.60628H150.151V11.0325H140.676V8.60628ZM148.931 3.7876H151.696V15.9987H148.931V3.7876Z" fill="black"/>
<path d="M155.65 16.1446C155.368 16.147 155.09 16.0743 154.845 15.9341C154.602 15.7944 154.401 15.5926 154.262 15.3496C154.124 15.1066 154.052 14.8311 154.055 14.5512C154.051 14.2634 154.123 13.9796 154.265 13.7292C154.404 13.4883 154.604 13.2885 154.845 13.1499C155.09 13.0097 155.368 12.937 155.65 12.9394C155.938 12.9354 156.221 13.0081 156.472 13.1499C156.713 13.2876 156.913 13.4877 157.051 13.7292C157.193 13.9796 157.266 14.2634 157.262 14.5512C157.264 14.8335 157.192 15.1114 157.051 15.3564C156.913 15.5979 156.713 15.7979 156.472 15.9357C156.221 16.0769 155.938 16.149 155.65 16.1446Z" fill="black"/>
<path d="M167.695 3.7876L173.41 15.9987H170.463L165.464 4.91083H166.375L161.377 15.9987H158.43L164.146 3.7876H167.695ZM161.621 13.4265V11.18H170.085V13.4265H161.621Z" fill="black"/>
<path d="M174.728 3.7876H177.494V15.9987H174.728V3.7876Z" fill="black"/>
</g>
<defs>
<clipPath id="clip0_207_430">
<rect width="177.495" height="20" fill="white"/>
</clipPath>
</defs>
</svg>
