<svg width="21" height="20" viewBox="0 0 21 20" fill="none" xmlns="http://www.w3.org/2000/svg">
<path d="M11.0388 6.00638L15.9912 4.05647L14.0413 9.00884L20.0907 9.73717C20.0139 7.08813 19.0039 4.81605 17.0606 2.92095C15.1174 1.02585 12.8678 0.0526839 10.312 0.00146484L11.0388 6.00638Z" fill="black"/>
<path d="M6.05416 9.00891L4.10579 4.05654L9.05201 6.00953L9.7788 0C7.12156 0.0594141 4.83463 1.03258 2.91802 2.91948C1.0014 4.80639 0.0282422 7.07847 -0.00146484 9.73571L6.05416 9.00891Z" fill="black"/>
<path d="M9.05215 13.992L4.09978 15.9419L6.04969 10.9896L-0.00439453 10.2612C-0.0025127 11.5358 0.257089 12.7968 0.758802 13.9684C1.26051 15.14 1.99398 16.1981 2.91509 17.079C4.82966 18.969 7.11659 19.9421 9.77588 19.9985L9.05215 13.992Z" fill="black"/>
<path d="M14.0382 10.9897L15.9912 15.942L11.0388 13.9937L10.312 20.0001C11.9667 19.9697 13.5848 19.5078 15.0062 18.6602C16.5047 17.7677 17.7606 16.5202 18.6633 15.0278C19.54 13.5889 20.0311 11.9483 20.0892 10.2644L14.0382 10.9897Z" fill="black"/>
</svg>
